<?xml version="1.0" encoding="UTF-8" standalone="no"?>
<!DOCTYPE svg PUBLIC "-//W3C//DTD SVG 1.1//EN" "http://www.w3.org/Graphics/SVG/1.1/DTD/svg11.dtd">
<svg version="1.1" xmlns="http://www.w3.org/2000/svg" xmlns:xlink="http://www.w3.org/1999/xlink" preserveAspectRatio="xMidYMid meet" viewBox="0 0 200 200" width="200" height="200"><defs><path d="" id="a1xRldyBUq"></path><path d="M15.63 193.75L187.5 193.75L187.5 156.79L15.63 156.79L15.63 193.75Z" id="b1fk6lG0U0"></path><path d="M49.48 133.31L150.52 133.31L150.52 157.25L49.48 157.25L49.48 133.31Z" id="dRgCjhHy2"></path><path d="M123.35 9.38L131.25 9.38L131.25 179.08L123.35 179.08L123.35 9.38Z" id="c9rTz74F1"></path><path d="M73.55 31.64L131.25 4.69L131.25 58.59L131.25 112.5L73.55 85.55L15.86 58.59L73.55 31.64Z" id="b2NeWrAekV"></path><path d="M123.17 8.56L131.17 8.56L131.17 108.51L123.17 108.51L123.17 8.56Z" id="b1JzfPau9r"></path><path d="M123.35 108.43L131.25 108.43L131.25 125L123.35 125L123.35 108.43Z" id="a6uQfG8azE"></path></defs><g><g><g><g><use xlink:href="#a1xRldyBUq" opacity="1" fill-opacity="0" stroke="#000000" stroke-width="1" stroke-opacity="1"></use></g></g><g><use xlink:href="#b1fk6lG0U0" opacity="1" fill="#000000" fill-opacity="1"></use></g><g><use xlink:href="#dRgCjhHy2" opacity="1" fill="#000000" fill-opacity="1"></use></g><g><use xlink:href="#c9rTz74F1" opacity="1" fill="#000000" fill-opacity="1"></use></g><g><use xlink:href="#b2NeWrAekV" opacity="1" fill="#ff0000" fill-opacity="1"></use></g><g><use xlink:href="#b1JzfPau9r" opacity="1" fill="#ff0000" fill-opacity="1"></use></g><g><use xlink:href="#a6uQfG8azE" opacity="1" fill="#000000" fill-opacity="1"></use></g></g></g></svg>