<?xml version="1.0" encoding="UTF-8" standalone="no"?>
<!DOCTYPE svg PUBLIC "-//W3C//DTD SVG 1.1//EN" "http://www.w3.org/Graphics/SVG/1.1/DTD/svg11.dtd">
<svg version="1.1" xmlns="http://www.w3.org/2000/svg" xmlns:xlink="http://www.w3.org/1999/xlink" preserveAspectRatio="xMidYMid meet" viewBox="0 0 200 200" width="200" height="200"><defs><path d="M109.17 25.56L112.16 25.98L115.11 26.52L118.01 27.18L120.88 27.95L123.7 28.83L126.46 29.81L129.18 30.9L131.85 32.09L134.45 33.38L137 34.76L139.49 36.24L141.92 37.82L144.28 39.48L146.58 41.23L148.8 43.06L149.5 43.68L167.3 25.88L174.37 32.95L156.55 50.77L156.94 51.2L158.77 53.42L160.52 55.72L162.18 58.08L163.76 60.51L165.24 63L166.62 65.55L167.91 68.15L169.1 70.82L170.19 73.54L171.17 76.3L172.05 79.12L172.82 81.99L173.48 84.89L174.02 87.84L174.44 90.83L174.75 93.85L174.82 95L200 95L200 95.13L200.12 95.12L200.12 105.12L174.81 105.13L174.75 106.15L174.44 109.17L174.02 112.16L173.48 115.11L172.82 118.01L172.05 120.88L171.17 123.7L170.19 126.46L169.1 129.18L167.91 131.85L166.62 134.45L165.24 137L163.76 139.49L162.18 141.92L160.52 144.28L158.77 146.58L156.94 148.8L156.43 149.36L174.37 167.3L167.3 174.37L149.36 156.43L148.8 156.94L146.58 158.77L144.28 160.52L141.92 162.18L139.49 163.76L137 165.24L134.45 166.62L131.85 167.91L129.18 169.1L126.46 170.19L123.7 171.17L120.88 172.05L118.01 172.82L115.11 173.48L112.16 174.02L109.17 174.44L106.15 174.75L105 174.82L105 200L95 200L95 174.82L93.85 174.75L90.83 174.44L87.84 174.02L84.89 173.48L81.99 172.82L79.12 172.05L76.3 171.17L73.54 170.19L70.82 169.1L68.15 167.91L65.55 166.62L63 165.24L60.51 163.76L58.08 162.18L55.72 160.52L53.42 158.77L51.2 156.94L50.77 156.55L32.95 174.37L25.88 167.3L43.68 149.5L43.06 148.8L41.23 146.58L39.48 144.28L37.82 141.92L36.24 139.49L34.76 137L33.38 134.45L32.09 131.85L30.9 129.18L29.81 126.46L28.83 123.7L27.95 120.88L27.18 118.01L26.52 115.11L25.98 112.16L25.56 109.17L25.25 106.15L25.19 105.13L0.12 105.13L0.13 105L0 105L0 95L25.18 95L25.25 93.85L25.56 90.83L25.98 87.84L26.52 84.89L27.18 81.99L27.95 79.12L28.83 76.3L29.81 73.54L30.9 70.82L32.09 68.15L33.38 65.55L34.76 63L36.24 60.51L37.82 58.08L39.48 55.72L41.23 53.42L43.06 51.2L43.57 50.64L25.88 32.95L32.95 25.88L50.64 43.57L51.2 43.06L53.42 41.23L55.72 39.48L58.08 37.82L60.51 36.24L63 34.76L65.55 33.38L68.15 32.09L70.82 30.9L73.54 29.81L76.3 28.83L79.12 27.95L81.99 27.18L84.89 26.52L87.84 25.98L90.83 25.56L93.85 25.25L95 25.18L95 0L105 0L105 25.18L106.15 25.25L109.17 25.56Z" id="a3fKv36N"></path><path d="M1.93 10.57L10.57 1.93L198.07 189.43L189.43 198.07L1.93 10.57Z" id="b5ILaYqCTA"></path><path d="M190.71 0.77L199.35 9.41L10.63 198.13L1.99 189.49L190.71 0.77Z" id="d1QI2kfkwJ"></path></defs><g><g><g><use xlink:href="#a3fKv36N" opacity="1" fill="#000000" fill-opacity="1"></use><g><use xlink:href="#a3fKv36N" opacity="1" fill-opacity="0" stroke="#000000" stroke-width="1" stroke-opacity="0"></use></g></g><g><use xlink:href="#b5ILaYqCTA" opacity="1" fill="#ff0000" fill-opacity="1"></use></g><g><use xlink:href="#d1QI2kfkwJ" opacity="1" fill="#ff0000" fill-opacity="1"></use></g></g></g></svg>