<?xml version="1.0" encoding="UTF-8" standalone="no"?>
<!DOCTYPE svg PUBLIC "-//W3C//DTD SVG 1.1//EN" "http://www.w3.org/Graphics/SVG/1.1/DTD/svg11.dtd">
<svg version="1.1" xmlns="http://www.w3.org/2000/svg" xmlns:xlink="http://www.w3.org/1999/xlink" preserveAspectRatio="xMidYMid meet" viewBox="0 0 200 200" width="200" height="200"><defs><path d="M198.13 100.62C198.13 154.44 154.44 198.12 100.63 198.12C46.81 198.12 3.13 154.44 3.13 100.62C3.13 46.81 46.81 3.13 100.63 3.13C154.44 3.13 198.13 46.81 198.13 100.62Z" id="bnJDppo2q"></path><path d="" id="ajnkWNd22"></path><path d="M74.75 75L85.47 85.72L79.47 91.72L68.75 81L58.03 91.72L52.03 85.72L62.75 75L52.03 64.28L58.03 58.28L68.75 69L79.47 58.28L85.47 64.28L74.75 75Z" id="i3RKGFj1Jn"></path><path d="M140.38 75L151.1 85.72L145.09 91.72L134.37 81L123.66 91.72L117.65 85.72L128.37 75L117.65 64.28L123.66 58.28L134.37 69L145.09 58.28L151.1 64.28L140.38 75Z" id="b1a0blWp0d"></path><path d="M141.77 135.94C141.77 143.7 123.05 150 100 150C76.95 150 58.23 143.7 58.23 135.94C58.23 128.18 76.95 121.88 100 121.88C123.05 121.88 141.77 128.18 141.77 135.94Z" id="bWfdKueM"></path></defs><g><g><g><use xlink:href="#bnJDppo2q" opacity="1" fill="#ffff00" fill-opacity="1"></use><g><use xlink:href="#bnJDppo2q" opacity="1" fill-opacity="0" stroke="#000000" stroke-width="5" stroke-opacity="1"></use></g></g><g><g><use xlink:href="#ajnkWNd22" opacity="1" fill-opacity="0" stroke="#330f19" stroke-width="1" stroke-opacity="1"></use></g></g><g><use xlink:href="#i3RKGFj1Jn" opacity="1" fill="#000000" fill-opacity="1"></use></g><g><use xlink:href="#b1a0blWp0d" opacity="1" fill="#000000" fill-opacity="1"></use></g><g><use xlink:href="#bWfdKueM" opacity="1" fill="#000000" fill-opacity="1"></use></g></g></g></svg>