<?xml version="1.0" encoding="UTF-8" standalone="no"?>
<!DOCTYPE svg PUBLIC "-//W3C//DTD SVG 1.1//EN" "http://www.w3.org/Graphics/SVG/1.1/DTD/svg11.dtd">
<svg version="1.1" xmlns="http://www.w3.org/2000/svg" xmlns:xlink="http://www.w3.org/1999/xlink" preserveAspectRatio="xMidYMid meet" viewBox="0 0 200 200" width="200" height="200"><defs><path d="M198.13 100.62C198.13 154.44 154.44 198.12 100.63 198.12C46.81 198.12 3.13 154.44 3.13 100.62C3.13 46.81 46.81 3.13 100.63 3.13C154.44 3.13 198.13 46.81 198.13 100.62Z" id="c6EN07Oglp"></path><path d="" id="a4aCJQVy9q"></path><path d="M142.88 75L156.25 88.37L148.76 95.86L135.39 82.49L122.02 95.86L114.53 88.37L127.9 75L114.53 61.63L122.02 54.14L135.39 67.51L148.76 54.14L156.25 61.63L142.88 75Z" id="j16qPVuo60"></path><path d="M171.87 138.59C171.87 150.8 140.37 160.72 101.56 160.72C62.76 160.72 31.25 150.8 31.25 138.59C31.25 126.38 62.76 116.46 101.56 116.46C140.37 116.46 171.87 126.38 171.87 138.59Z" id="agCqTw4Qc"></path><path d="M75.23 73.99L88.6 87.36L81.11 94.85L67.74 81.48L54.36 94.85L46.88 87.36L60.25 73.99L46.88 60.61L54.36 53.13L67.74 66.5L81.11 53.13L88.6 60.61L75.23 73.99Z" id="cxBtrJOy"></path></defs><g><g><g><use xlink:href="#c6EN07Oglp" opacity="1" fill="#ffff00" fill-opacity="1"></use><g><use xlink:href="#c6EN07Oglp" opacity="1" fill-opacity="0" stroke="#000000" stroke-width="5" stroke-opacity="1"></use></g></g><g><g><use xlink:href="#a4aCJQVy9q" opacity="1" fill-opacity="0" stroke="#330f19" stroke-width="1" stroke-opacity="1"></use></g></g><g><use xlink:href="#j16qPVuo60" opacity="1" fill="#000000" fill-opacity="1"></use></g><g><use xlink:href="#agCqTw4Qc" opacity="1" fill="#000000" fill-opacity="1"></use></g><g><use xlink:href="#cxBtrJOy" opacity="1" fill="#000000" fill-opacity="1"></use></g></g></g></svg>