<?xml version="1.0" encoding="UTF-8" standalone="no"?>
<!DOCTYPE svg PUBLIC "-//W3C//DTD SVG 1.1//EN" "http://www.w3.org/Graphics/SVG/1.1/DTD/svg11.dtd">
<svg version="1.1" xmlns="http://www.w3.org/2000/svg" xmlns:xlink="http://www.w3.org/1999/xlink" preserveAspectRatio="xMidYMid meet" viewBox="0 0 200 200" width="200" height="200"><defs><path d="M198.13 100.62C198.13 154.44 154.44 198.12 100.63 198.12C46.81 198.12 3.13 154.44 3.13 100.62C3.13 46.81 46.81 3.13 100.63 3.13C154.44 3.13 198.13 46.81 198.13 100.62Z" id="b7S1p7KrE"></path><path d="" id="e18XDkrHD"></path><path d="M112.5 63.52C112.5 68.13 109.53 71.88 105.86 71.88C102.2 71.88 99.22 68.13 99.22 63.52C99.22 58.91 102.2 55.17 105.86 55.17C109.53 55.17 112.5 58.91 112.5 63.52Z" id="d8CN6wkfF"></path><path d="M166.95 110.13C166.95 138.28 137.95 161.13 102.22 161.13C66.5 161.13 37.5 138.28 37.5 110.13C37.5 81.98 66.5 59.13 102.22 59.13C137.95 59.13 166.95 81.98 166.95 110.13Z" id="c1EDLayw71"></path><path d="M27.42 48.43L171.88 48.43L171.88 113.74L27.42 113.74L27.42 48.43Z" id="asqPA0UpS"></path><path d="M149.25 74.38C149.25 82.65 142.53 89.37 134.25 89.37C125.97 89.37 119.25 82.65 119.25 74.38C119.25 66.1 125.97 59.38 134.25 59.38C142.53 59.38 149.25 66.1 149.25 74.38Z" id="a1X6VNVfdZ"></path><path d="M84.37 74.38C84.37 82.65 77.65 89.37 69.38 89.37C61.1 89.37 54.38 82.65 54.38 74.38C54.38 66.1 61.1 59.38 69.38 59.38C77.65 59.38 84.37 66.1 84.37 74.38Z" id="dpLtcRXhG"></path></defs><g><g><g><use xlink:href="#b7S1p7KrE" opacity="1" fill="#ffff00" fill-opacity="1"></use><g><use xlink:href="#b7S1p7KrE" opacity="1" fill-opacity="0" stroke="#000000" stroke-width="5" stroke-opacity="1"></use></g></g><g><g><use xlink:href="#e18XDkrHD" opacity="1" fill-opacity="0" stroke="#330f19" stroke-width="1" stroke-opacity="1"></use></g></g><g><use xlink:href="#d8CN6wkfF" opacity="1" fill="#ffff00" fill-opacity="1"></use></g><g><g><use xlink:href="#c1EDLayw71" opacity="1" fill="#000000" fill-opacity="1"></use></g><g><use xlink:href="#asqPA0UpS" opacity="1" fill="#ffff00" fill-opacity="1"></use></g></g><g><use xlink:href="#a1X6VNVfdZ" opacity="1" fill="#000000" fill-opacity="1"></use></g><g><use xlink:href="#dpLtcRXhG" opacity="1" fill="#000000" fill-opacity="1"></use></g></g></g></svg>