<?xml version="1.0" encoding="UTF-8" standalone="no"?>
<!DOCTYPE svg PUBLIC "-//W3C//DTD SVG 1.1//EN" "http://www.w3.org/Graphics/SVG/1.1/DTD/svg11.dtd">
<svg version="1.1" xmlns="http://www.w3.org/2000/svg" xmlns:xlink="http://www.w3.org/1999/xlink" preserveAspectRatio="xMidYMid meet" viewBox="0 0 200 200" width="200" height="200"><defs><path d="M198.13 100.62C198.13 154.44 154.44 198.12 100.63 198.12C46.81 198.12 3.13 154.44 3.13 100.62C3.13 46.81 46.81 3.13 100.63 3.13C154.44 3.13 198.13 46.81 198.13 100.62Z" id="gwlcDM8t2"></path><path d="" id="a2vbYZB0a"></path><path d="M112.5 63.52C112.5 68.13 109.53 71.88 105.86 71.88C102.2 71.88 99.22 68.13 99.22 63.52C99.22 58.91 102.2 55.17 105.86 55.17C109.53 55.17 112.5 58.91 112.5 63.52Z" id="a2010s2CU6"></path><path d="M166.95 110.13C166.95 138.28 137.95 161.13 102.22 161.13C66.5 161.13 37.5 138.28 37.5 110.13C37.5 81.98 66.5 59.13 102.22 59.13C137.95 59.13 166.95 81.98 166.95 110.13Z" id="g5b1V17lj"></path><path d="M27.42 48.43L171.88 48.43L171.88 113.74L27.42 113.74L27.42 48.43Z" id="c2gqW9Byhk"></path><path d="M78.3 51.7C86.83 51.7 93.75 57.96 93.75 65.69C93.75 87.09 62.85 97.72 62.85 98.3C62.85 98.3 62.85 98.3 62.85 98.3C62.85 97.72 31.94 87.09 31.94 65.69C31.94 57.96 38.86 51.7 47.39 51.7C55.93 51.7 62.85 57.19 62.84 64.91C62.84 57.19 69.76 51.7 78.3 51.7Z" id="a77o9lLzg"></path><path d="M156.42 51.7C164.96 51.7 171.87 57.96 171.87 65.69C171.88 87.09 140.97 97.72 140.97 98.3C140.97 98.3 140.97 98.3 140.97 98.3C140.97 97.72 110.06 87.09 110.06 65.69C110.06 57.96 116.98 51.7 125.52 51.7C134.05 51.7 140.97 57.19 140.97 64.91C140.97 57.19 147.89 51.7 156.42 51.7Z" id="e2gWCO5Egi"></path></defs><g><g><g><use xlink:href="#gwlcDM8t2" opacity="1" fill="#ffff00" fill-opacity="1"></use><g><use xlink:href="#gwlcDM8t2" opacity="1" fill-opacity="0" stroke="#000000" stroke-width="5" stroke-opacity="1"></use></g></g><g><g><use xlink:href="#a2vbYZB0a" opacity="1" fill-opacity="0" stroke="#330f19" stroke-width="1" stroke-opacity="1"></use></g></g><g><use xlink:href="#a2010s2CU6" opacity="1" fill="#ffff00" fill-opacity="1"></use></g><g><g><use xlink:href="#g5b1V17lj" opacity="1" fill="#000000" fill-opacity="1"></use></g><g><use xlink:href="#c2gqW9Byhk" opacity="1" fill="#ffff00" fill-opacity="1"></use></g></g><g><use xlink:href="#a77o9lLzg" opacity="1" fill="#ff0000" fill-opacity="1"></use></g><g><use xlink:href="#e2gWCO5Egi" opacity="1" fill="#ff0000" fill-opacity="1"></use></g></g></g></svg>